<svg xmlns="http://www.w3.org/2000/svg"><symbol id="add" viewBox="0 0 24 24"><path d="M18.984 12.984h-6v6h-1.969v-6h-6v-1.969h6v-6h1.969v6h6v1.969z"/></symbol><symbol id="arrow_back" viewBox="0 0 24 24"><path d="M20.016 11.016v1.969H7.828l5.578 5.625L12 20.016 3.984 12 12 3.984l1.406 1.406-5.578 5.625h12.188z"/></symbol><symbol id="arrow_downward" viewBox="0 0 24 24"><path d="M20.016 12L12 20.016 3.984 12l1.453-1.406 5.578 5.578V3.984h1.969v12.188l5.625-5.578z"/></symbol><symbol id="arrow_forward" viewBox="0 0 24 24"><path d="M12 3.984L20.016 12 12 20.016l-1.406-1.406 5.578-5.625H3.984v-1.969h12.188l-5.578-5.625z"/></symbol><symbol id="arrow_upward" viewBox="0 0 24 24"><path d="M3.984 12L12 3.984 20.016 12l-1.453 1.406-5.578-5.578v12.188h-1.969V7.828l-5.625 5.578z"/></symbol><symbol id="check" viewBox="0 0 24 24"><path d="M9 16.172L19.594 5.578 21 6.984l-12 12-5.578-5.578L4.828 12z"/></symbol><symbol id="close" viewBox="0 0 24 24"><path d="M18.984 6.422L13.406 12l5.578 5.578-1.406 1.406L12 13.406l-5.578 5.578-1.406-1.406L10.594 12 5.016 6.422l1.406-1.406L12 10.594l5.578-5.578z"/></symbol><symbol id="facebook" viewBox="0 0 33 33"><path d="M17.996 32H12V16H8v-5.514l4-.002-.006-3.248C11.993 2.737 13.213 0 18.512 0h4.412v5.515h-2.757c-2.063 0-2.163.77-2.163 2.209l-.008 2.76h4.959l-.585 5.514L18 16l-.004 16z"/></symbol><symbol id="twitter" viewBox="0 0 33 33"><path d="M32 6.076a13.14 13.14 0 0 1-3.771 1.034 6.592 6.592 0 0 0 2.887-3.632 13.151 13.151 0 0 1-4.169 1.593 6.557 6.557 0 0 0-4.792-2.073 6.565 6.565 0 0 0-6.565 6.565c0 .515.058 1.016.17 1.496a18.64 18.64 0 0 1-13.532-6.86A6.536 6.536 0 0 0 1.339 7.5a6.563 6.563 0 0 0 2.921 5.465 6.54 6.54 0 0 1-2.974-.821l-.001.083a6.57 6.57 0 0 0 5.266 6.438 6.578 6.578 0 0 1-2.965.112 6.572 6.572 0 0 0 6.133 4.559 13.172 13.172 0 0 1-8.154 2.81c-.53 0-1.052-.031-1.566-.092a18.579 18.579 0 0 0 10.064 2.95c12.076 0 18.679-10.004 18.679-18.68 0-.285-.006-.568-.019-.849A13.354 13.354 0 0 0 32 6.076z"/></symbol></svg>